<svg id="Layer_1" enable-background="new 0 0 256 256" height="512" viewBox="0 0 256 256" width="512" xmlns="http://www.w3.org/2000/svg"><path d="m83.898 4h109.507l-54.753 78.372h92.328l-171.774 169.628 28.987-109.507h-74.078z" fill="#fcc24c"/><path d="m138.652 82.372 54.753-78.372h-10l-49.026 70.175c-2.414 3.455.058 8.197 4.273 8.197z" fill="#dea42e"/><path d="m230.98 82.372h-10l-156.097 164.022z" fill="#dea42e"/><path d="m83.898 4-69.783 138.493h10l69.783-138.493z" fill="#fce06a"/><path d="m90.826 142.493h-2.633l-28.987 109.507.525-.518 36.01-102.042c1.197-3.391-1.319-6.947-4.915-6.947z" fill="#fce06a"/><path d="m59.205 254c-.344 0-.689-.088-1.002-.27-.78-.452-1.161-1.371-.931-2.242l28.322-106.995h-71.479c-.694 0-1.339-.36-1.703-.951s-.396-1.329-.083-1.949l69.783-138.493c.34-.675 1.031-1.1 1.786-1.1h109.506c.746 0 1.429.415 1.773 1.076.345.661.293 1.458-.134 2.07l-52.556 75.227h88.492c.811 0 1.542.49 1.85 1.24s.132 1.613-.445 2.183l-171.773 169.627c-.384.38-.893.577-1.406.577zm-41.843-113.507h70.831c.621 0 1.206.288 1.585.78.378.492.507 1.131.349 1.731l-27.113 102.424 163.095-161.056h-87.458c-.746 0-1.429-.415-1.773-1.076-.345-.661-.293-1.458.134-2.07l52.556-75.226h-104.438z" fill="#690589"/><path d="m160.041 114h60.935l-30.467 43.61h51.376l-95.584 94.39 16.13-60.935h-41.221z" fill="#fcc24c"/><path d="m160.041 114-38.831 77.065h10l38.831-77.065z" fill="#fce06a"/><path d="m164.874 191.065h-2.444l-16.129 60.935.425-.419 22.751-53.561c1.4-3.298-1.02-6.955-4.603-6.955z" fill="#fce06a"/><path d="m241.885 157.61h-10l-83.283 92.118z" fill="#dea42e"/><path d="m190.509 157.61 30.467-43.61h-10l-24.974 35.747c-2.315 3.314.056 7.864 4.099 7.864h.408z" fill="#dea42e"/><g fill="#690589"><path d="m146.3 254c-.344 0-.689-.088-1.002-.27-.78-.452-1.161-1.371-.931-2.242l15.465-58.423h-38.622c-.694 0-1.339-.36-1.703-.951s-.396-1.329-.083-1.949l38.831-77.065c.34-.675 1.031-1.1 1.786-1.1h60.935c.746 0 1.429.415 1.773 1.076.345.661.293 1.458-.134 2.07l-28.27 40.465h47.54c.811 0 1.542.49 1.85 1.24s.132 1.613-.445 2.183l-95.584 94.39c-.384.379-.893.576-1.406.576zm-21.843-64.935h37.974c.621 0 1.206.288 1.585.78.378.492.507 1.131.349 1.731l-14.255 53.852 86.904-85.818h-46.505c-.746 0-1.429-.415-1.773-1.076-.345-.661-.293-1.458.134-2.07l28.269-40.464h-55.866z"/><path d="m53.604 86.118c-.303 0-.61-.069-.898-.214-.986-.497-1.383-1.7-.886-2.686l6.047-12c.497-.986 1.702-1.383 2.686-.886.986.497 1.383 1.7.886 2.686l-6.047 12c-.352.697-1.057 1.1-1.788 1.1z"/></g></svg>