<?xml version="1.0" ?><!DOCTYPE svg  PUBLIC '-//W3C//DTD SVG 1.1//EN'  'http://www.w3.org/Graphics/SVG/1.1/DTD/svg11.dtd'><svg id="Layer_1" style="enable-background:new 0 0 64 64;" version="1.1" viewBox="0 0 64 64" xml:space="preserve" xmlns="http://www.w3.org/2000/svg" xmlns:xlink="http://www.w3.org/1999/xlink"><g><g id="Icon-Comment" transform="translate(328.000000, 480.000000)"><path class="st0" d="M-310-425.6h-2.5l1.5-2.1c1.1-1.6,1.9-3.5,2.3-6c-7.1-3.2-10.9-9.2-10.9-17.1     c0-12.1,9.1-19.6,23.8-19.6c14.7,0,23.8,7.5,23.8,19.6c0,12.2-8.9,19.6-23.8,19.6c-0.3,0-0.7,0-1,0     C-299.2-428.6-303.2-425.6-310-425.6L-310-425.6z M-296-467.8c-13.3,0-21.2,6.3-21.2,17c0,9.1,5.6,13.2,10.2,15.1l0.9,0.4l-0.1,1     c-0.3,2.3-0.8,4.3-1.6,6c4.8-0.6,7.6-3,9.1-5l0.4-0.5l0.9,0c0.4,0,0.9,0,1.3,0c19.1,0,21.2-11.9,21.2-17     C-274.8-461.4-282.7-467.8-296-467.8L-296-467.8z" id="Fill-59"/></g></g></svg>