<?xml version="1.0" ?><!DOCTYPE svg  PUBLIC '-//W3C//DTD SVG 1.1//EN'  'http://www.w3.org/Graphics/SVG/1.1/DTD/svg11.dtd'><svg id="Layer_1" style="enable-background:new 0 0 64 64;" version="1.1" viewBox="0 0 64 64" xml:space="preserve" xmlns="http://www.w3.org/2000/svg" xmlns:xlink="http://www.w3.org/1999/xlink"><g><g id="Icon-Like" transform="translate(78.000000, 528.000000)"><path class="st0" d="M-22-495.6c0-3.2-2.5-4.9-6-4.9h-10.1c0.7-2.7,1.1-5.3,1.1-7.5c0-8.7-2.4-10.5-4.5-10.5     c-1.4,0-2.4,0.1-3.8,1c-0.4,0.2-0.6,0.6-0.7,1l-1.5,8.1c-1.6,4.3-5.7,8-9,10.5v21.4c1.1,0,2.5,0.6,3.8,1.3     c1.6,0.8,3.3,1.6,5.2,1.6h14.3c3,0,5.2-2.4,5.2-4.5c0-0.4,0-0.8-0.1-1.1c1.9-0.7,3.1-2.3,3.1-4.1c0-0.9-0.2-1.7-0.5-2.3     c1.1-0.8,2.3-2.1,2.3-3.7c0-0.8-0.4-1.8-1-2.5C-22.9-492.8-22-494.2-22-495.6L-22-495.6z M-25.1-495.6c0,1.9-2,2.1-2.3,3     c-0.3,1,1.2,1.4,1.2,3.2c0,1.9-2.3,1.9-2.6,2.8c-0.4,1.1,0.7,1.5,0.7,3.3c0,0.1,0,0.2,0,0.3c-0.3,1.5-2.6,1.6-3,2.2     c-0.4,0.7,0.1,1.1,0.1,2.7c0,0.9-1,1.5-2.2,1.5h-14.3c-1.1,0-2.5-0.6-3.8-1.3c-1.2-0.6-2.4-1.2-3.7-1.5v-15.9     c3.7-2.8,8.5-7.1,10.4-12.3c0-0.1,0-0.2,0.1-0.2l1.4-7.5c0.5-0.2,0.9-0.2,1.7-0.2c0.3,0,1.5,1.8,1.5,7.5c0,2.2-0.4,4.7-1.2,7.5     h-0.4c-0.8,0-1.5,0.7-1.5,1.5c0,0.8,0.7,1.5,1.5,1.5H-28C-26.5-497.5-25.1-496.8-25.1-495.6L-25.1-495.6z" id="Fill-4_2_"/><path class="st0" d="M-58-473.5h-9c-1.7,0-3-1.3-3-3v-21c0-1.7,1.3-3,3-3h9c1.7,0,3,1.3,3,3v21     C-55-474.8-56.3-473.5-58-473.5L-58-473.5z M-67-497.5v21h9l0-21H-67L-67-497.5z M-70-518.5" id="Fill-6_2_"/></g></g></svg>