<svg id="Lag_1" data-name="Lag 1" xmlns="http://www.w3.org/2000/svg" viewBox="0 0 1024 1024"><defs><style>.cls-1{fill:#00a4ff;}.cls-2{fill:#ff00b7;}.cls-3{fill:#fff;}.cls-4{fill:#00a397;}</style></defs><title>Podfriend_logo</title><rect class="cls-1" x="15.17" y="15.17" width="993.65" height="993.65" rx="89.46"/><path d="M919.36,1024H104.63A104.75,104.75,0,0,1,0,919.36V104.63A104.75,104.75,0,0,1,104.63,0H919.36A104.75,104.75,0,0,1,1024,104.63V919.36A104.76,104.76,0,0,1,919.36,1024ZM104.63,30.35a74.36,74.36,0,0,0-74.28,74.28V919.36a74.36,74.36,0,0,0,74.28,74.29H919.36a74.37,74.37,0,0,0,74.29-74.29V104.63a74.36,74.36,0,0,0-74.29-74.28Z"/><path class="cls-2" d="M134.64,667.38h754.7s-38.42,251-377.47,251S134.64,667.38,134.64,667.38Z"/><path d="M289.69,868.65c-77.1-36.41-135.3-110.49-152.41-194Q224.06,669.9,311,668.2c40.76-.79,90.81-8.94,130.62-.15-41,21.14-77.73,36.79-107,75.13A220.24,220.24,0,0,0,302,803.41C299.47,810.41,282.63,865.32,289.69,868.65Z"/><path d="M503.72,809.14c-1,7.51-.82,17,6,20.4,5.06,2.56,11.49,0,15.17-4.35s5.28-10,6.95-15.41c17.54-57.86,52.67-102.94,96.5-143.15-25.83,2.53-58.54-1.78-77.23,19.69C523.4,718.1,509.34,768.32,503.72,809.14Z"/><path class="cls-3" d="M259,781.41c22.81,0,43.85-59.69,51.08-104.95H216.47C220.28,721.35,236.78,781.41,259,781.41Z"/><path class="cls-3" d="M765,781.41c22.3,0,38.77-60.06,42.54-104.95H713.9C721.16,721.72,742.23,781.41,765,781.41Z"/><path d="M511.87,935.62C330,935.62,232.55,864,182.81,803.88,128.45,738.2,118,672.73,117.56,670l-3-19.87H909.46l-3,19.88c-.43,2.76-11,68.23-65.37,133.89C791.26,864,693.72,935.62,511.87,935.62Zm-355.41-251c16.88,57.28,87.87,216.42,355.41,216.42,264.64,0,337.72-159.48,355.36-216.42Z"/><circle class="cls-4" cx="512" cy="400.24" r="180.95"/><circle cx="512" cy="400.24" r="93.2"/><circle class="cls-3" cx="590.5" cy="349.13" r="51.83"/><path class="cls-3" d="M509.56,120c308.36,0,328.37,296.43,328.37,296.43s21.82,161.85-89.11,161.85H493.77"/><path class="cls-3" d="M514.44,120c-308.36,0-328.37,296.43-328.37,296.43s-21.82,161.85,89.11,161.85H530.24"/><circle class="cls-4" cx="512" cy="400.24" r="180.95"/><circle cx="512" cy="400.24" r="93.2"/><circle class="cls-3" cx="590.5" cy="349.13" r="51.83"/><path d="M855.11,414.57c-1.43-16.36-31.81-308.7-340.67-311.78v-.07c-.82,0-1.62,0-2.44,0s-1.61,0-2.44,0v.07c-308.83,3.08-339.23,295.39-340.67,311.77-1,8.15-11.54,99.35,32,149.15,18.46,21.12,43.46,31.83,74.29,31.83H748.82c30.83,0,55.82-10.71,74.29-31.83C866.65,513.91,856.15,422.72,855.11,414.57Zm-58,126.4c-11.79,13.48-27.58,20-48.29,20H275.18c-20.68,0-36.46-6.53-48.24-20-34.33-39.18-23.86-121.48-23.75-122.29l.11-1.13c.8-11.41,22.88-278.77,308.7-280.3,285.82,1.53,307.89,268.89,308.7,280.28l.11,1.15C823.9,441.65,825.67,508.3,797.11,541Z"/></svg>