<?xml version="1.0" ?><!DOCTYPE svg  PUBLIC '-//W3C//DTD SVG 1.1//EN'  'http://www.w3.org/Graphics/SVG/1.1/DTD/svg11.dtd'><svg enable-background="new 0 0 500 500" height="500px" id="Layer_1" version="1.1" viewBox="0 0 500 500" width="500px" xml:space="preserve" xmlns="http://www.w3.org/2000/svg" xmlns:xlink="http://www.w3.org/1999/xlink"><path clip-rule="evenodd" d="M36.992,326.039c0,20.079,16.262,36.34,36.34,36.34h54.513v56.062  c0,10.087,8.181,18.168,18.172,18.168c5.092,0,9.714-2.095,12.989-5.448l68.78-68.781h199.881c20.078,0,36.34-16.261,36.34-36.34  V98.902c0-20.079-16.262-36.341-36.34-36.341H73.333c-20.079,0-36.34,16.262-36.34,36.341V326.039z M146.018,221.557  c0-12.536,10.177-22.713,22.713-22.713c12.536,0,22.713,10.177,22.713,22.713c0,12.537-10.177,22.713-22.713,22.713  C156.194,244.27,146.018,234.093,146.018,221.557z M227.787,221.557c0-12.536,10.177-22.713,22.713-22.713  c12.537,0,22.715,10.177,22.715,22.713c0,12.537-10.178,22.713-22.715,22.713C237.964,244.27,227.787,234.093,227.787,221.557z   M309.556,221.557c0-12.536,10.176-22.713,22.715-22.713c12.537,0,22.711,10.177,22.711,22.713  c0,12.537-10.174,22.713-22.711,22.713C319.731,244.27,309.556,234.093,309.556,221.557z" fill-rule="evenodd"/></svg>