<?xml version="1.0" encoding="utf-8"?>
<svg viewBox="0 0 1026.4662 1600" xmlns="http://www.w3.org/2000/svg">
  <defs>
    <style id="style55">.cls-1{fill:#00a4ff;}.cls-2{fill:#ff00b7;}.cls-3{fill:#fff;}.cls-4{fill:#00a397;}</style>
  </defs>
  <rect class="cls-1" x="17.636169" y="15.17" width="993.65002" height="993.65002" rx="89.459999" id="rect61"/>
  <path d="m 921.82617,1024 h -814.73 A 104.75,104.75 0 0 1 2.46617,919.36 V 104.63 A 104.75,104.75 0 0 1 107.09617,0 h 814.73 A 104.75,104.75 0 0 1 1026.4662,104.63 V 919.36 A 104.76,104.76 0 0 1 921.82617,1024 Z m -814.73,-993.65 a 74.36,74.36 0 0 0 -74.28,74.28 v 814.73 a 74.36,74.36 0 0 0 74.28,74.29 h 814.73 a 74.37,74.37 0 0 0 74.29,-74.29 V 104.63 a 74.36,74.36 0 0 0 -74.29,-74.28 z" id="path63"/>
  <path class="cls-2" d="m 137.10617,667.38 h 754.7 c 0,0 -38.42,251 -377.47,251 -339.05,0 -377.23,-251 -377.23,-251 z" id="path65"/>
  <path d="m 292.15617,868.65 c -77.1,-36.41 -135.3,-110.49 -152.41,-194 q 86.78,-4.75 173.72,-6.45 c 40.76,-0.79 90.81,-8.94 130.62,-0.15 -41,21.14 -77.73,36.79 -107,75.13 a 220.24,220.24 0 0 0 -32.62,60.23 c -2.53,7 -19.37,61.91 -12.31,65.24 z" id="path67"/>
  <path d="m 506.18617,809.14 c -1,7.51 -0.82,17 6,20.4 5.06,2.56 11.49,0 15.17,-4.35 3.68,-4.35 5.28,-10 6.95,-15.41 17.54,-57.86 52.67,-102.94 96.5,-143.15 -25.83,2.53 -58.54,-1.78 -77.23,19.69 -27.71,31.78 -41.77,82 -47.39,122.82 z" id="path69"/>
  <path class="cls-3" d="m 261.46617,781.41 c 22.81,0 43.85,-59.69 51.08,-104.95 h -93.61 c 3.81,44.89 20.31,104.95 42.53,104.95 z" id="path71"/>
  <path class="cls-3" d="m 767.46617,781.41 c 22.3,0 38.77,-60.06 42.54,-104.95 h -93.64 c 7.26,45.26 28.33,104.95 51.1,104.95 z" id="path73"/>
  <path d="m 514.33617,935.62 c -181.87,0 -279.32,-71.62 -329.06,-131.74 -54.36,-65.68 -64.81,-131.15 -65.25,-133.88 l -3,-19.87 h 794.9 l -3,19.88 c -0.43,2.76 -11,68.23 -65.37,133.89 -49.83,60.1 -147.37,131.72 -329.22,131.72 z m -355.41,-251 c 16.88,57.28 87.87,216.42 355.41,216.42 264.64,0 337.72,-159.48 355.36,-216.42 z" id="path75"/>
  <circle class="cls-4" cx="514.46619" cy="400.23999" r="180.95" id="circle77"/>
  <circle cx="514.46619" cy="400.23999" r="93.199997" id="circle79"/>
  <circle class="cls-3" cx="592.96619" cy="349.13" r="51.830002" id="circle81"/>
  <path class="cls-3" d="m 512.02617,120 c 308.36,0 328.37,296.43 328.37,296.43 0,0 21.82,161.85 -89.11,161.85 h -255.05" id="path83"/>
  <path class="cls-3" d="m 516.90617,120 c -308.36,0 -328.37,296.43 -328.37,296.43 0,0 -21.82,161.85 89.11,161.85 h 255.06" id="path85"/>
  <circle class="cls-4" cx="514.46619" cy="400.23999" r="180.95" id="circle87"/>
  <circle cx="514.46619" cy="400.23999" r="93.199997" id="circle89"/>
  <circle class="cls-3" cx="592.96619" cy="349.13" r="51.830002" id="circle91"/>
  <path d="m 857.57617,414.57 c -1.43,-16.36 -31.81,-308.7 -340.67,-311.78 v -0.07 c -0.82,0 -1.62,0 -2.44,0 -0.82,0 -1.61,0 -2.44,0 v 0.07 c -308.83,3.08 -339.23,295.39 -340.67,311.77 -1,8.15 -11.54,99.35 32,149.15 18.46,21.12 43.46,31.83 74.29,31.83 h 473.64 c 30.83,0 55.82,-10.71 74.29,-31.83 43.54,-49.8 33.04,-140.99 32,-149.14 z m -58,126.4 c -11.79,13.48 -27.58,20 -48.29,20 h -473.64 c -20.68,0 -36.46,-6.53 -48.24,-20 -34.33,-39.18 -23.86,-121.48 -23.75,-122.29 l 0.11,-1.13 c 0.8,-11.41 22.88,-278.77 308.7,-280.3 285.82,1.53 307.89,268.89 308.7,280.28 l 0.11,1.15 c 3.09,22.97 4.86,89.62 -23.7,122.32 z" id="path93"/>
  <text style="font-style: normal; font-weight: normal; font-size: 237.931px; line-height: 1.25; font-family: sans-serif; fill: rgb(0, 137, 255); fill-opacity: 1; stroke: none; stroke-width: 1.23922; white-space: pre;" x="-15.103042" y="1325.7229" id="text102"><tspan id="tspan100" x="-15.103042" y="1325.7229" style="font-style:normal;font-variant:normal;font-weight:bold;font-stretch:normal;font-size:237.931px;font-family:Roboto;-inkscape-font-specification:'Roboto Bold';fill:#0089ff;fill-opacity:1;stroke-width:1.23922">Podfriend</tspan></text>
  <path d="M 47.405 1394.48 L 60.475 1443.42 L 70.885 1394.48 L 81.995 1394.48 L 65.175 1463.16 L 56.225 1463.16 L 42.835 1414.03 L 29.755 1463.16 L 20.745 1463.16 L 4.045 1394.48 L 15.095 1394.48 L 25.755 1442.21 L 38.515 1394.48 L 47.405 1394.48 ZM 131.887 1394.48 L 144.957 1443.42 L 155.367 1394.48 L 166.477 1394.48 L 149.657 1463.16 L 140.707 1463.16 L 127.317 1414.03 L 114.237 1463.16 L 105.227 1463.16 L 88.527 1394.48 L 99.577 1394.48 L 110.237 1442.21 L 122.997 1394.48 L 131.887 1394.48 ZM 216.37 1394.48 L 229.44 1443.42 L 239.85 1394.48 L 250.96 1394.48 L 234.14 1463.16 L 225.19 1463.16 L 211.8 1414.03 L 198.72 1463.16 L 189.71 1463.16 L 173.01 1394.48 L 184.06 1394.48 L 194.72 1442.21 L 207.48 1394.48 L 216.37 1394.48 ZM 255.592 1457 C 255.592 1454.973 256.195 1453.28 257.402 1451.92 C 258.608 1450.567 260.418 1449.89 262.832 1449.89 C 265.245 1449.89 267.075 1450.567 268.322 1451.92 C 269.568 1453.28 270.192 1454.973 270.192 1457 C 270.192 1458.947 269.568 1460.577 268.322 1461.89 C 267.075 1463.203 265.245 1463.86 262.832 1463.86 C 260.418 1463.86 258.608 1463.203 257.402 1461.89 C 256.195 1460.577 255.592 1458.947 255.592 1457 ZM 338.683 1424.63 L 338.683 1432.12 C 338.683 1442.993 336.727 1451.097 332.813 1456.43 C 328.893 1461.763 323.36 1464.43 316.213 1464.43 C 309.313 1464.43 304 1461.827 300.273 1456.62 L 300.273 1489.57 L 289.103 1489.57 L 289.103 1394.48 L 299.263 1394.48 L 299.833 1402.1 C 303.6 1396.173 308.997 1393.21 316.023 1393.21 C 323.557 1393.21 329.183 1395.833 332.903 1401.08 C 336.63 1406.327 338.557 1414.177 338.683 1424.63 Z M 327.513 1432.56 L 327.513 1425.71 C 327.513 1418.01 326.327 1412.33 323.953 1408.67 C 321.587 1405.003 317.78 1403.17 312.533 1403.17 C 307.153 1403.17 303.067 1405.86 300.273 1411.24 L 300.273 1446.97 C 303.027 1452.217 307.153 1454.84 312.653 1454.84 C 317.733 1454.84 321.47 1453.01 323.863 1449.35 C 326.25 1445.69 327.467 1440.093 327.513 1432.56 ZM 350.801 1433.14 L 350.801 1425.65 C 350.801 1415.657 353.224 1407.753 358.071 1401.94 C 362.918 1396.12 369.318 1393.21 377.271 1393.21 C 385.224 1393.21 391.624 1396.043 396.471 1401.71 C 401.318 1407.383 403.804 1415.107 403.931 1424.88 L 403.931 1432.12 C 403.931 1442.067 401.518 1449.937 396.691 1455.73 C 391.871 1461.53 385.441 1464.43 377.401 1464.43 C 369.441 1464.43 363.061 1461.617 358.261 1455.99 C 353.454 1450.357 350.968 1442.74 350.801 1433.14 Z M 362.041 1425.58 L 362.041 1432.12 C 362.041 1439.187 363.424 1444.74 366.191 1448.78 C 368.964 1452.82 372.701 1454.84 377.401 1454.84 C 387.301 1454.84 392.398 1447.69 392.691 1433.39 L 392.691 1425.65 C 392.691 1418.623 391.298 1413.067 388.511 1408.98 C 385.718 1404.9 381.971 1402.86 377.271 1402.86 C 372.658 1402.86 368.964 1404.9 366.191 1408.98 C 363.424 1413.067 362.041 1418.6 362.041 1425.58 ZM 416.051 1432.75 L 416.051 1425.71 C 416.051 1415.13 418.031 1407.067 421.991 1401.52 C 425.944 1395.98 431.624 1393.21 439.031 1393.21 C 445.591 1393.21 450.711 1395.877 454.391 1401.21 L 454.391 1365.66 L 465.631 1365.66 L 465.631 1463.16 L 455.341 1463.16 L 454.771 1455.8 C 451.091 1461.553 445.824 1464.43 438.971 1464.43 C 431.858 1464.43 426.281 1461.67 422.241 1456.15 C 418.201 1450.623 416.138 1442.823 416.051 1432.75 Z M 427.291 1425.26 L 427.291 1432.12 C 427.291 1439.82 428.431 1445.48 430.711 1449.1 C 432.998 1452.72 436.724 1454.53 441.891 1454.53 C 447.471 1454.53 451.638 1451.713 454.391 1446.08 L 454.391 1411.43 C 451.511 1405.923 447.364 1403.17 441.951 1403.17 C 436.784 1403.17 433.061 1404.98 430.781 1408.6 C 428.494 1412.22 427.331 1417.773 427.291 1425.26 ZM 499.08 1463.16 L 487.84 1463.16 L 487.84 1403.56 L 478.89 1403.56 L 478.89 1394.48 L 487.84 1394.48 L 487.84 1386.54 C 487.966 1379.56 489.733 1374.113 493.14 1370.2 C 496.546 1366.287 501.36 1364.33 507.58 1364.33 C 509.826 1364.33 512.09 1364.69 514.37 1365.41 L 513.8 1374.93 C 512.193 1374.55 510.48 1374.36 508.66 1374.36 C 502.273 1374.36 499.08 1378.907 499.08 1388 L 499.08 1394.48 L 510.82 1394.48 L 510.82 1403.56 L 499.08 1403.56 L 499.08 1463.16 ZM 552.33 1394.1 L 552.39 1405.02 C 550.823 1404.72 549.13 1404.57 547.31 1404.57 C 541.557 1404.57 537.537 1407.723 535.25 1414.03 L 535.25 1463.16 L 524.02 1463.16 L 524.02 1394.48 L 534.94 1394.48 L 535.13 1401.46 C 538.13 1395.96 542.383 1393.21 547.89 1393.21 C 549.663 1393.21 551.143 1393.507 552.33 1394.1 ZM 575.684 1394.48 L 575.684 1463.16 L 564.454 1463.16 L 564.454 1394.48 L 575.684 1394.48 Z M 576.574 1376.26 C 576.574 1378.167 576.044 1379.753 574.984 1381.02 C 573.93 1382.293 572.324 1382.93 570.164 1382.93 C 568.05 1382.93 566.464 1382.293 565.404 1381.02 C 564.344 1379.753 563.814 1378.167 563.814 1376.26 C 563.814 1374.353 564.344 1372.747 565.404 1371.44 C 566.464 1370.127 568.05 1369.47 570.164 1369.47 C 572.277 1369.47 573.874 1370.137 574.954 1371.47 C 576.034 1372.803 576.574 1374.4 576.574 1376.26 ZM 617.892 1464.43 C 609.346 1464.43 602.789 1461.88 598.222 1456.78 C 593.649 1451.68 591.319 1444.2 591.232 1434.34 L 591.232 1426.03 C 591.232 1415.783 593.466 1407.753 597.932 1401.94 C 602.399 1396.12 608.629 1393.21 616.622 1393.21 C 624.669 1393.21 630.679 1395.77 634.652 1400.89 C 638.632 1406.01 640.666 1413.987 640.752 1424.82 L 640.752 1432.18 L 602.412 1432.18 L 602.412 1433.77 C 602.412 1441.137 603.796 1446.49 606.562 1449.83 C 609.336 1453.17 613.326 1454.84 618.532 1454.84 C 621.832 1454.84 624.742 1454.217 627.262 1452.97 C 629.776 1451.723 632.132 1449.747 634.332 1447.04 L 640.172 1454.15 C 635.306 1461.003 627.879 1464.43 617.892 1464.43 Z M 616.622 1402.86 C 611.969 1402.86 608.522 1404.457 606.282 1407.65 C 604.036 1410.843 602.766 1415.803 602.472 1422.53 L 629.512 1422.53 L 629.512 1421.01 C 629.219 1414.497 628.046 1409.843 625.992 1407.05 C 623.939 1404.257 620.816 1402.86 616.622 1402.86 ZM 654.203 1394.48 L 664.803 1394.48 L 665.123 1401.91 C 669.476 1396.11 675.04 1393.21 681.813 1393.21 C 693.96 1393.21 700.116 1401.313 700.283 1417.52 L 700.283 1463.16 L 689.113 1463.16 L 689.113 1418.03 C 689.113 1412.657 688.213 1408.837 686.413 1406.57 C 684.62 1404.303 681.923 1403.17 678.323 1403.17 C 675.53 1403.17 673.023 1404.103 670.803 1405.97 C 668.583 1407.83 666.793 1410.263 665.433 1413.27 L 665.433 1463.16 L 654.203 1463.16 L 654.203 1394.48 ZM 714.754 1432.75 L 714.754 1425.71 C 714.754 1415.13 716.734 1407.067 720.694 1401.52 C 724.648 1395.98 730.328 1393.21 737.734 1393.21 C 744.294 1393.21 749.414 1395.877 753.094 1401.21 L 753.094 1365.66 L 764.334 1365.66 L 764.334 1463.16 L 754.044 1463.16 L 753.474 1455.8 C 749.794 1461.553 744.528 1464.43 737.674 1464.43 C 730.561 1464.43 724.984 1461.67 720.944 1456.15 C 716.904 1450.623 714.841 1442.823 714.754 1432.75 Z M 725.994 1425.26 L 725.994 1432.12 C 725.994 1439.82 727.134 1445.48 729.414 1449.1 C 731.701 1452.72 735.428 1454.53 740.594 1454.53 C 746.174 1454.53 750.341 1451.713 753.094 1446.08 L 753.094 1411.43 C 750.214 1405.923 746.068 1403.17 740.654 1403.17 C 735.488 1403.17 731.764 1404.98 729.484 1408.6 C 727.198 1412.22 726.034 1417.773 725.994 1425.26 ZM 782.353 1457 C 782.353 1454.973 782.956 1453.28 784.163 1451.92 C 785.37 1450.567 787.18 1449.89 789.593 1449.89 C 792.006 1449.89 793.836 1450.567 795.083 1451.92 C 796.33 1453.28 796.953 1454.973 796.953 1457 C 796.953 1458.947 796.33 1460.577 795.083 1461.89 C 793.836 1463.203 792.006 1463.86 789.593 1463.86 C 787.18 1463.86 785.37 1463.203 784.163 1461.89 C 782.956 1460.577 782.353 1458.947 782.353 1457 ZM 839.675 1454.84 C 843.395 1454.84 846.378 1453.69 848.625 1451.39 C 850.865 1449.083 852.092 1445.79 852.305 1441.51 L 862.905 1441.51 C 862.652 1448.117 860.312 1453.587 855.885 1457.92 C 851.465 1462.26 846.062 1464.43 839.675 1464.43 C 831.168 1464.43 824.682 1461.753 820.215 1456.4 C 815.748 1451.047 813.515 1443.08 813.515 1432.5 L 813.515 1424.95 C 813.515 1414.583 815.738 1406.7 820.185 1401.3 C 824.625 1395.907 831.098 1393.21 839.605 1393.21 C 846.632 1393.21 852.208 1395.43 856.335 1399.87 C 860.462 1404.317 862.652 1410.39 862.905 1418.09 L 852.305 1418.09 C 852.052 1413.01 850.835 1409.203 848.655 1406.67 C 846.475 1404.13 843.458 1402.86 839.605 1402.86 C 834.612 1402.86 830.908 1404.5 828.495 1407.78 C 826.088 1411.06 824.842 1416.443 824.755 1423.93 L 824.755 1432.69 C 824.755 1440.777 825.952 1446.49 828.345 1449.83 C 830.732 1453.17 834.508 1454.84 839.675 1454.84 ZM 873.5 1433.14 L 873.5 1425.65 C 873.5 1415.657 875.924 1407.753 880.77 1401.94 C 885.617 1396.12 892.017 1393.21 899.97 1393.21 C 907.924 1393.21 914.324 1396.043 919.17 1401.71 C 924.017 1407.383 926.504 1415.107 926.63 1424.88 L 926.63 1432.12 C 926.63 1442.067 924.217 1449.937 919.39 1455.73 C 914.57 1461.53 908.14 1464.43 900.1 1464.43 C 892.14 1464.43 885.76 1461.617 880.96 1455.99 C 876.154 1450.357 873.667 1442.74 873.5 1433.14 Z M 884.74 1425.58 L 884.74 1432.12 C 884.74 1439.187 886.124 1444.74 888.89 1448.78 C 891.664 1452.82 895.4 1454.84 900.1 1454.84 C 910 1454.84 915.097 1447.69 915.39 1433.39 L 915.39 1425.65 C 915.39 1418.623 913.997 1413.067 911.21 1408.98 C 908.417 1404.9 904.67 1402.86 899.97 1402.86 C 895.357 1402.86 891.664 1404.9 888.89 1408.98 C 886.124 1413.067 884.74 1418.6 884.74 1425.58 ZM 941.16 1394.48 L 951.7 1394.48 L 951.95 1400.83 C 956.144 1395.75 961.667 1393.21 968.52 1393.21 C 976.18 1393.21 981.534 1396.53 984.58 1403.17 C 988.894 1396.53 994.904 1393.21 1002.61 1393.21 C 1015.264 1393.21 1021.737 1401.103 1022.03 1416.89 L 1022.03 1463.16 L 1010.86 1463.16 L 1010.86 1417.96 C 1010.86 1412.967 1009.97 1409.253 1008.19 1406.82 C 1006.417 1404.387 1003.414 1403.17 999.18 1403.17 C 995.794 1403.17 993.044 1404.483 990.93 1407.11 C 988.81 1409.737 987.584 1413.08 987.25 1417.14 L 987.25 1463.16 L 975.95 1463.16 L 975.95 1417.46 C 975.824 1407.933 971.95 1403.17 964.33 1403.17 C 958.664 1403.17 954.664 1406.007 952.33 1411.68 L 952.33 1463.16 L 941.16 1463.16 L 941.16 1394.48 Z" transform="matrix(1, 0, 0, 1, 0, 0)" style="fill: rgb(51, 51, 51); white-space: pre;"/>
</svg>