<?xml version="1.0" encoding="UTF-8" standalone="no"?>
<svg
   xmlns:dc="http://purl.org/dc/elements/1.1/"
   xmlns:cc="http://creativecommons.org/ns#"
   xmlns:rdf="http://www.w3.org/1999/02/22-rdf-syntax-ns#"
   xmlns:svg="http://www.w3.org/2000/svg"
   xmlns="http://www.w3.org/2000/svg"
   xmlns:sodipodi="http://sodipodi.sourceforge.net/DTD/sodipodi-0.dtd"
   xmlns:inkscape="http://www.inkscape.org/namespaces/inkscape"
   id="Lag_1"
   data-name="Lag 1"
   viewBox="0 0 4197.6919 1024"
   version="1.1"
   sodipodi:docname="logo-with-text.svg"
   width="4197.6919"
   height="1024"
   inkscape:version="1.0.1 (3bc2e813f5, 2020-09-07)">
  <metadata
     id="metadata98">
    <rdf:RDF>
      <cc:Work
         rdf:about="">
        <dc:format>image/svg+xml</dc:format>
        <dc:type
           rdf:resource="http://purl.org/dc/dcmitype/StillImage" />
        <dc:title>Podfriend_logo</dc:title>
      </cc:Work>
    </rdf:RDF>
  </metadata>
  <sodipodi:namedview
     pagecolor="#ffffff"
     bordercolor="#666666"
     borderopacity="1"
     objecttolerance="10"
     gridtolerance="10"
     guidetolerance="10"
     inkscape:pageopacity="0"
     inkscape:pageshadow="2"
     inkscape:window-width="2560"
     inkscape:window-height="1334"
     id="namedview96"
     showgrid="false"
     inkscape:zoom="0.34802912"
     inkscape:cx="1987.7492"
     inkscape:cy="901.55696"
     inkscape:window-x="2391"
     inkscape:window-y="-9"
     inkscape:window-maximized="1"
     inkscape:current-layer="Lag_1" />
  <defs
     id="defs57">
    <style
       id="style55">.cls-1{fill:#00a4ff;}.cls-2{fill:#ff00b7;}.cls-3{fill:#fff;}.cls-4{fill:#00a397;}</style>
  </defs>
  <title
     id="title59">Podfriend_logo</title>
  <rect
     class="cls-1"
     x="15.17"
     y="15.17"
     width="993.65002"
     height="993.65002"
     rx="89.459999"
     id="rect61" />
  <path
     d="M 919.36,1024 H 104.63 A 104.75,104.75 0 0 1 0,919.36 V 104.63 A 104.75,104.75 0 0 1 104.63,0 H 919.36 A 104.75,104.75 0 0 1 1024,104.63 V 919.36 A 104.76,104.76 0 0 1 919.36,1024 Z M 104.63,30.35 a 74.36,74.36 0 0 0 -74.28,74.28 v 814.73 a 74.36,74.36 0 0 0 74.28,74.29 h 814.73 a 74.37,74.37 0 0 0 74.29,-74.29 V 104.63 A 74.36,74.36 0 0 0 919.36,30.35 Z"
     id="path63" />
  <path
     class="cls-2"
     d="m 134.64,667.38 h 754.7 c 0,0 -38.42,251 -377.47,251 -339.05,0 -377.23,-251 -377.23,-251 z"
     id="path65" />
  <path
     d="m 289.69,868.65 c -77.1,-36.41 -135.3,-110.49 -152.41,-194 Q 224.06,669.9 311,668.2 c 40.76,-0.79 90.81,-8.94 130.62,-0.15 -41,21.14 -77.73,36.79 -107,75.13 A 220.24,220.24 0 0 0 302,803.41 c -2.53,7 -19.37,61.91 -12.31,65.24 z"
     id="path67" />
  <path
     d="m 503.72,809.14 c -1,7.51 -0.82,17 6,20.4 5.06,2.56 11.49,0 15.17,-4.35 3.68,-4.35 5.28,-10 6.95,-15.41 17.54,-57.86 52.67,-102.94 96.5,-143.15 -25.83,2.53 -58.54,-1.78 -77.23,19.69 -27.71,31.78 -41.77,82 -47.39,122.82 z"
     id="path69" />
  <path
     class="cls-3"
     d="m 259,781.41 c 22.81,0 43.85,-59.69 51.08,-104.95 h -93.61 c 3.81,44.89 20.31,104.95 42.53,104.95 z"
     id="path71" />
  <path
     class="cls-3"
     d="m 765,781.41 c 22.3,0 38.77,-60.06 42.54,-104.95 H 713.9 c 7.26,45.26 28.33,104.95 51.1,104.95 z"
     id="path73" />
  <path
     d="M 511.87,935.62 C 330,935.62 232.55,864 182.81,803.88 128.45,738.2 118,672.73 117.56,670 l -3,-19.87 h 794.9 l -3,19.88 c -0.43,2.76 -11,68.23 -65.37,133.89 C 791.26,864 693.72,935.62 511.87,935.62 Z m -355.41,-251 c 16.88,57.28 87.87,216.42 355.41,216.42 264.64,0 337.72,-159.48 355.36,-216.42 z"
     id="path75" />
  <circle
     class="cls-4"
     cx="512"
     cy="400.23999"
     r="180.95"
     id="circle77" />
  <circle
     cx="512"
     cy="400.23999"
     r="93.199997"
     id="circle79" />
  <circle
     class="cls-3"
     cx="590.5"
     cy="349.13"
     r="51.830002"
     id="circle81" />
  <path
     class="cls-3"
     d="m 509.56,120 c 308.36,0 328.37,296.43 328.37,296.43 0,0 21.82,161.85 -89.11,161.85 H 493.77"
     id="path83" />
  <path
     class="cls-3"
     d="m 514.44,120 c -308.36,0 -328.37,296.43 -328.37,296.43 0,0 -21.82,161.85 89.11,161.85 h 255.06"
     id="path85" />
  <circle
     class="cls-4"
     cx="512"
     cy="400.23999"
     r="180.95"
     id="circle87" />
  <circle
     cx="512"
     cy="400.23999"
     r="93.199997"
     id="circle89" />
  <circle
     class="cls-3"
     cx="590.5"
     cy="349.13"
     r="51.830002"
     id="circle91" />
  <path
     d="M 855.11,414.57 C 853.68,398.21 823.3,105.87 514.44,102.79 v -0.07 c -0.82,0 -1.62,0 -2.44,0 -0.82,0 -1.61,0 -2.44,0 v 0.07 c -308.83,3.08 -339.23,295.39 -340.67,311.77 -1,8.15 -11.54,99.35 32,149.15 18.46,21.12 43.46,31.83 74.29,31.83 h 473.64 c 30.83,0 55.82,-10.71 74.29,-31.83 43.54,-49.8 33.04,-140.99 32,-149.14 z m -58,126.4 c -11.79,13.48 -27.58,20 -48.29,20 H 275.18 c -20.68,0 -36.46,-6.53 -48.24,-20 -34.33,-39.18 -23.86,-121.48 -23.75,-122.29 l 0.11,-1.13 c 0.8,-11.41 22.88,-278.77 308.7,-280.3 285.82,1.53 307.89,268.89 308.7,280.28 l 0.11,1.15 c 3.09,22.97 4.86,89.62 -23.7,122.32 z"
     id="path93" />
  <text
     xml:space="preserve"
     style="font-style:normal;font-weight:normal;font-size:676.121px;line-height:1.25;font-family:sans-serif;fill:#0089ff;fill-opacity:1;stroke:none;stroke-width:3.52146"
     x="1246.5953"
     y="750.11554"
     id="text102"><tspan
       id="tspan100"
       x="1246.5953"
       y="750.11554"
       style="font-style:normal;font-variant:normal;font-weight:bold;font-stretch:normal;font-size:676.121px;font-family:Roboto;-inkscape-font-specification:'Roboto Bold';fill:#0089ff;fill-opacity:1;stroke-width:3.52146"
       sodipodi:role="line">Podfriend</tspan></text>
</svg>
