<?xml version="1.0" encoding="UTF-8" standalone="no"?>
<svg
   xmlns:dc="http://purl.org/dc/elements/1.1/"
   xmlns:cc="http://creativecommons.org/ns#"
   xmlns:rdf="http://www.w3.org/1999/02/22-rdf-syntax-ns#"
   xmlns:svg="http://www.w3.org/2000/svg"
   xmlns="http://www.w3.org/2000/svg"
   viewBox="0 0 1365.3333 1365.3333"
   height="1365.3333"
   width="1365.3333"
   xml:space="preserve"
   id="svg2"
   version="1.1"><metadata
     id="metadata8"><rdf:RDF><cc:Work
         rdf:about=""><dc:format>image/svg+xml</dc:format><dc:type
           rdf:resource="http://purl.org/dc/dcmitype/StillImage" /></cc:Work></rdf:RDF></metadata><defs
     id="defs6"><clipPath
       id="clipPath18"
       clipPathUnits="userSpaceOnUse"><path
         id="path16"
         d="M 0,1024 H 1024 V 0 H 0 Z" /></clipPath></defs><g
     transform="matrix(1.3333333,0,0,-1.3333333,0,1365.3333)"
     id="g10"><g
       id="g12"><g
         clip-path="url(#clipPath18)"
         id="g14"><g
           transform="translate(919.3652,1008.8276)"
           id="g20"><path
             id="path22"
             style="fill:#00a6ff;fill-opacity:1;fill-rule:nonzero;stroke:none"
             d="m 0,0 h -814.732 c -49.408,0 -89.461,-40.053 -89.461,-89.461 v -814.732 c 0,-49.408 40.053,-89.461 89.461,-89.461 H 0 c 49.408,0 89.461,40.053 89.461,89.461 V -89.461 C 89.461,-40.053 49.408,0 0,0" /></g><g
           transform="translate(104.6328,993.6519)"
           id="g24"><path
             id="path26"
             style="fill:#000000;fill-opacity:1;fill-rule:nonzero;stroke:none"
             d="m 0,0 c -40.961,0 -74.285,-33.323 -74.285,-74.285 v -814.731 c 0,-40.964 33.324,-74.288 74.285,-74.288 h 814.731 c 40.964,0 74.289,33.324 74.289,74.288 V -74.285 C 889.02,-33.323 855.695,0 814.731,0 Z M 814.731,-993.652 H 0 c -57.694,0 -104.633,46.939 -104.633,104.636 v 814.731 c 0,57.694 46.939,104.633 104.633,104.633 h 814.731 c 57.698,0 104.636,-46.939 104.636,-104.633 v -814.731 c 0,-57.697 -46.938,-104.636 -104.636,-104.636" /></g><g
           transform="translate(134.6372,356.6191)"
           id="g28"><path
             id="path30"
             style="fill:#ff00bc;fill-opacity:1;fill-rule:nonzero;stroke:none"
             d="m 0,0 h 754.707 c 0,0 -38.424,-250.963 -377.471,-250.963 C 38.19,-250.963 0,0 0,0" /></g><g
           transform="translate(289.6934,155.3467)"
           id="g32"><path
             id="path34"
             style="fill:#000000;fill-opacity:1;fill-rule:nonzero;stroke:none"
             d="m 0,0 c -77.105,36.409 -135.302,110.498 -152.412,194.033 57.848,3.154 115.75,5.293 173.672,6.419 40.761,0.793 90.803,8.937 130.62,0.152 C 110.916,179.461 74.146,163.817 44.845,125.478 30.931,107.271 19.896,86.846 12.254,65.243 9.779,58.243 -7.061,3.334 0,0" /></g><g
           transform="translate(503.7178,214.8652)"
           id="g36"><path
             id="path38"
             style="fill:#000000;fill-opacity:1;fill-rule:nonzero;stroke:none"
             d="m 0,0 c -1.036,-7.518 -0.816,-16.984 5.958,-20.404 5.066,-2.559 11.499,0.023 15.175,4.348 3.677,4.327 5.283,9.983 6.951,15.41 17.533,57.859 52.666,102.942 96.502,143.149 -25.834,-2.526 -58.539,1.785 -77.23,-19.684 C 19.684,91.033 5.624,40.812 0,0" /></g><g
           transform="translate(259.0132,242.5908)"
           id="g40"><path
             id="path42"
             style="fill:#ffffff;fill-opacity:1;fill-rule:nonzero;stroke:none"
             d="M 0,0 C 22.809,0 43.852,59.688 51.074,104.946 H -42.542 C -38.732,60.056 -22.238,0 0,0" /></g><g
           transform="translate(764.9678,242.5908)"
           id="g44"><path
             id="path46"
             style="fill:#ffffff;fill-opacity:1;fill-rule:nonzero;stroke:none"
             d="M 0,0 C 22.306,0 38.776,60.059 42.543,104.946 H -51.072 C -43.804,59.687 -22.742,0 0,0" /></g><g
           transform="translate(156.46,339.3477)"
           id="g48"><path
             id="path50"
             style="fill:#000000;fill-opacity:1;fill-rule:nonzero;stroke:none"
             d="m 0,0 c 16.877,-57.275 87.873,-216.421 355.412,-216.421 264.641,0 337.718,159.486 355.355,216.421 z m 355.412,-250.965 c -181.856,0 -279.323,71.643 -329.065,131.741 C -28.007,-53.551 -38.479,11.918 -38.9,14.675 l -3.023,19.87 h 794.926 l -3.046,-19.888 c -0.422,-2.752 -10.954,-68.221 -65.365,-133.886 -49.797,-60.1 -147.328,-131.736 -329.18,-131.736" /></g><g
           transform="translate(692.9482,623.7554)"
           id="g52"><path
             id="path54"
             style="fill:#00a498;fill-opacity:1;fill-rule:nonzero;stroke:none"
             d="m 0,0 c 0,-99.935 -81.013,-180.948 -180.948,-180.948 -99.935,0 -180.948,81.013 -180.948,180.948 0,99.935 81.013,180.948 180.948,180.948 C -81.013,180.948 0,99.935 0,0" /></g><g
           transform="translate(605.2041,623.7554)"
           id="g56"><path
             id="path58"
             style="fill:#000000;fill-opacity:1;fill-rule:nonzero;stroke:none"
             d="m 0,0 c 0,-51.475 -41.729,-93.204 -93.204,-93.204 -51.475,0 -93.204,41.729 -93.204,93.204 0,51.475 41.729,93.204 93.204,93.204 C -41.729,93.204 0,51.475 0,0" /></g><g
           transform="translate(642.333,674.8691)"
           id="g60"><path
             id="path62"
             style="fill:#ffffff;fill-opacity:1;fill-rule:nonzero;stroke:none"
             d="m 0,0 c 0,-28.625 -23.205,-51.83 -51.829,-51.83 -28.625,0 -51.83,23.205 -51.83,51.83 0,28.625 23.205,51.829 51.83,51.829 C -23.205,51.829 0,28.625 0,0" /></g><g
           transform="translate(509.5591,904.0088)"
           id="g64"><path
             id="path66"
             style="fill:#ffffff;fill-opacity:1;fill-rule:nonzero;stroke:none"
             d="m 0,0 c 308.365,0 328.37,-296.427 328.37,-296.427 0,0 21.822,-161.853 -89.111,-161.853 H -15.793" /></g><g
           transform="translate(514.4414,904.0088)"
           id="g68"><path
             id="path70"
             style="fill:#ffffff;fill-opacity:1;fill-rule:nonzero;stroke:none"
             d="m 0,0 c -308.365,0 -328.369,-296.427 -328.369,-296.427 0,0 -21.823,-161.853 89.11,-161.853 H 15.794" /></g><g
           transform="translate(692.9482,623.7554)"
           id="g72"><path
             id="path74"
             style="fill:#00a498;fill-opacity:1;fill-rule:nonzero;stroke:none"
             d="m 0,0 c 0,-99.935 -81.013,-180.948 -180.948,-180.948 -99.935,0 -180.948,81.013 -180.948,180.948 0,99.935 81.013,180.948 180.948,180.948 C -81.013,180.948 0,99.935 0,0" /></g><g
           transform="translate(605.2041,623.7554)"
           id="g76"><path
             id="path78"
             style="fill:#000000;fill-opacity:1;fill-rule:nonzero;stroke:none"
             d="m 0,0 c 0,-51.475 -41.729,-93.204 -93.204,-93.204 -51.475,0 -93.204,41.729 -93.204,93.204 0,51.475 41.729,93.204 93.204,93.204 C -41.729,93.204 0,51.475 0,0" /></g><g
           transform="translate(642.333,674.8691)"
           id="g80"><path
             id="path82"
             style="fill:#ffffff;fill-opacity:1;fill-rule:nonzero;stroke:none"
             d="m 0,0 c 0,-28.625 -23.205,-51.83 -51.829,-51.83 -28.625,0 -51.83,23.205 -51.83,51.83 0,28.625 23.205,51.829 51.83,51.829 C -23.205,51.829 0,28.625 0,0" /></g><g
           transform="translate(797.1084,483.0283)"
           id="g84"><path
             id="path86"
             style="fill:#000000;fill-opacity:1;fill-rule:nonzero;stroke:none"
             d="m 0,0 c -11.784,-13.478 -27.579,-20.028 -48.289,-20.028 h -218.586 -36.468 -218.582 c -20.687,0 -36.468,6.534 -48.248,19.981 -34.322,39.18 -23.854,121.483 -23.746,122.293 l 0.114,1.123 c 0.801,11.413 22.879,278.77 308.698,280.302 C 0.712,402.139 22.786,134.782 23.587,123.389 l 0.115,-1.143 C 26.792,99.319 28.56,32.672 0,0 m 57.997,126.405 c -1.43,16.353 -31.81,308.697 -340.663,311.775 v 0.072 c -0.825,0 -1.62,-0.032 -2.441,-0.036 -0.822,0.004 -1.616,0.036 -2.441,0.036 v -0.072 c -308.833,-3.078 -339.233,-295.389 -340.666,-311.771 -1.039,-8.151 -11.544,-99.347 31.991,-149.143 18.47,-21.128 43.467,-31.839 74.298,-31.839 h 218.582 36.468 218.586 c 30.831,0 55.825,10.711 74.295,31.836 43.531,49.796 33.033,140.985 31.991,149.142" /></g></g></g></g></svg>