<?xml version="1.0"?>
<svg width="1078" height="1424" xmlns="http://www.w3.org/2000/svg" xmlns:svg="http://www.w3.org/2000/svg" xmlns:se="http://svg-edit.googlecode.com" data-name="Lag 1">
 <metadata id="metadata98">image/svg+xmlPodfriend_logo</metadata>
 <defs>
  <style>.cls-1{fill:#00a4ff;}.cls-2{fill:#ff00b7;}.cls-3{fill:#fff;}.cls-4{fill:#00a397;}</style>
 </defs>
 <title>Podfriend_logo</title>
 <g class="layer">
  <title>Layer 1</title>
  <rect class="cls-1" height="993.65002" id="rect61" rx="89.46" width="993.65002" x="31.26117" y="15.17"/>
  <path d="m935.45117,1024l-814.73,0a104.75,104.75 0 0 1 -104.63,-104.64l0,-814.73a104.75,104.75 0 0 1 104.63,-104.63l814.73,0a104.75,104.75 0 0 1 104.64003,104.63l0,814.73a104.76,104.76 0 0 1 -104.64003,104.64zm-814.73,-993.65a74.36,74.36 0 0 0 -74.28,74.28l0,814.73a74.36,74.36 0 0 0 74.28,74.29l814.73,0a74.37,74.37 0 0 0 74.29,-74.29l0,-814.73a74.36,74.36 0 0 0 -74.29,-74.28l-814.73,0z" id="path63"/>
  <path class="cls-2" d="m150.73117,667.38l754.7,0c0,0 -38.42,251 -377.47,251c-339.05,0 -377.23,-251 -377.23,-251z" id="path65"/>
  <path d="m305.78117,868.65c-77.1,-36.41 -135.3,-110.49 -152.41,-194q86.78,-4.75 173.72,-6.45c40.76,-0.79 90.81,-8.94 130.62,-0.15c-41,21.14 -77.73,36.79 -107,75.13a220.24,220.24 0 0 0 -32.62,60.23c-2.53,7 -19.37,61.91 -12.31,65.24z" id="path67"/>
  <path d="m519.81117,809.14c-1,7.51 -0.82,17 6,20.4c5.06,2.56 11.49,0 15.17,-4.35c3.68,-4.35 5.28,-10 6.95,-15.41c17.54,-57.86 52.67,-102.94 96.5,-143.15c-25.83,2.53 -58.54,-1.78 -77.23,19.69c-27.71,31.78 -41.77,82 -47.39,122.82z" id="path69"/>
  <path class="cls-3" d="m275.09117,781.41c22.81,0 43.85,-59.69 51.08,-104.95l-93.61,0c3.81,44.89 20.31,104.95 42.53,104.95z" id="path71"/>
  <path class="cls-3" d="m781.09117,781.41c22.3,0 38.77,-60.06 42.54,-104.95l-93.64,0c7.26,45.26 28.33,104.95 51.1,104.95z" id="path73"/>
  <path d="m527.96117,935.62c-181.87,0 -279.32,-71.62 -329.06,-131.74c-54.36,-65.68 -64.81,-131.15 -65.25,-133.88l-3,-19.87l794.9,0l-3,19.88c-0.43,2.76 -11,68.23 -65.37,133.89c-49.83,60.1 -147.37,131.72 -329.22,131.72zm-355.41,-251c16.88,57.28 87.87,216.42 355.41,216.42c264.64,0 337.72,-159.48 355.36,-216.42l-710.77,0z" id="path75"/>
  <circle class="cls-4" cx="528.09119" cy="400.23999" id="circle77" r="180.949997"/>
  <circle cx="528.09119" cy="400.23999" id="circle79" r="93.199997"/>
  <circle class="cls-3" cx="606.59119" cy="349.13" id="circle81" r="51.829998"/>
  <path class="cls-3" d="m525.65117,120c308.36,0 328.37,296.43 328.37,296.43c0,0 21.82,161.85 -89.11,161.85l-255.05,0" id="path83"/>
  <path class="cls-3" d="m530.53117,120c-308.36,0 -328.37,296.43 -328.37,296.43c0,0 -21.82,161.85 89.11,161.85l255.06,0" id="path85"/>
  <circle class="cls-4" cx="528.09119" cy="400.23999" id="circle87" r="180.949997"/>
  <circle cx="528.09119" cy="400.23999" id="circle89" r="93.199997"/>
  <circle class="cls-3" cx="606.59119" cy="349.13" id="circle91" r="51.829998"/>
  <path d="m871.20117,414.57c-1.43,-16.36 -31.81,-308.7 -340.67,-311.78l0,-0.07c-0.82,0 -1.62,0 -2.44,0c-0.82,0 -1.61,0 -2.44,0l0,0.07c-308.83,3.08 -339.23,295.39 -340.67,311.77c-1,8.15 -11.54,99.35 32,149.15c18.46,21.12 43.46,31.83 74.29,31.83l473.64,0c30.83,0 55.82,-10.71 74.29,-31.83c43.54,-49.8 33.04,-140.99 32,-149.14zm-58,126.4c-11.79,13.48 -27.58,20 -48.29,20l-473.64,0c-20.68,0 -36.46,-6.53 -48.24,-20c-34.33,-39.18 -23.86,-121.48 -23.75,-122.29l0.11,-1.13c0.8,-11.41 22.88,-278.77 308.7,-280.3c285.82,1.53 307.89,268.89 308.7,280.28l0.11,1.15c3.09,22.97 4.86,89.62 -23.7,122.32l0,-0.03z" id="path93"/>
  <text fill="#0089ff" font-family="sans-serif" font-size="237.931px" font-style="normal" font-weight="normal" id="text102" stroke-width="1.23922" x="5.515625" xml:space="preserve" y="950">
   <tspan fill="#0089ff" font-family="Roboto" font-size="237.931px" font-style="normal" font-weight="bold" id="tspan100" stroke-width="1.23922" x="0.014497" y="1230.200518">Podfriend</tspan>
  </text>
  <text fill="#000000" font-family="sans-serif" font-size="237.931px" font-style="normal" font-weight="normal" id="svg_1" stroke-width="1.23922" transform="matrix(0.579907 0 0 0.588917 127.268 510.901)" x="5.44032" xml:space="preserve" y="1500">Podcast App</text>
  <rect fill="#000000" height="0" id="svg_4" stroke-width="5" width="2" x="1076.315625" y="941.4"/>
 </g>
</svg>