<svg id="Lag_1_copy_7" data-name="Lag 1 copy 7" xmlns="http://www.w3.org/2000/svg" viewBox="0 0 1024 1024"><defs><style>.cls-1{fill:#00a4ff;}.cls-2{fill:#00a397;}.cls-3{fill:#fff;}</style></defs><title>Podfriend_logo_wat</title><rect class="cls-1" x="15.17" y="15.17" width="993.65" height="993.65" rx="89.46"/><path d="M919.36,1024H104.63A104.75,104.75,0,0,1,0,919.36V104.63A104.75,104.75,0,0,1,104.63,0H919.36A104.75,104.75,0,0,1,1024,104.63V919.36A104.76,104.76,0,0,1,919.36,1024ZM104.63,30.35a74.36,74.36,0,0,0-74.28,74.28V919.36a74.36,74.36,0,0,0,74.28,74.29H919.36a74.37,74.37,0,0,0,74.29-74.29V104.63a74.36,74.36,0,0,0-74.29-74.28Z"/><circle class="cls-2" cx="512" cy="400.24" r="180.95"/><circle cx="512" cy="400.24" r="93.2"/><circle class="cls-3" cx="590.5" cy="349.13" r="51.83"/><path class="cls-3" d="M509.56,120c308.36,0,328.37,296.43,328.37,296.43s21.82,161.85-89.11,161.85H493.77"/><path class="cls-3" d="M514.44,120c-308.36,0-328.37,296.43-328.37,296.43s-21.82,161.85,89.11,161.85H530.24"/><circle class="cls-2" cx="512" cy="400.24" r="180.95"/><circle cx="512" cy="400.24" r="93.2"/><circle class="cls-3" cx="590.5" cy="349.13" r="51.83"/><path d="M855.11,414.57c-1.43-16.36-31.81-308.7-340.67-311.78v-.07c-.82,0-1.62,0-2.44,0s-1.61,0-2.44,0v.07c-308.83,3.08-339.23,295.39-340.67,311.77-1,8.15-11.54,99.35,32,149.15,18.46,21.12,43.46,31.83,74.29,31.83H748.82c30.83,0,55.82-10.71,74.29-31.83C866.65,513.91,856.15,422.72,855.11,414.57Zm-58,126.4c-11.79,13.48-27.58,20-48.29,20H275.18c-20.68,0-36.46-6.53-48.24-20-34.33-39.18-23.86-121.48-23.75-122.29l.11-1.13c.8-11.41,22.88-278.77,308.7-280.3,285.82,1.53,307.89,268.89,308.7,280.28l.11,1.15C823.9,441.65,825.67,508.3,797.11,541Z"/><path d="M873.33,851l-85-125.42a14.11,14.11,0,0,0-2.85-4.08,18.74,18.74,0,0,0-27.17,0,14.11,14.11,0,0,0-2.85,4.08L685.32,829,615.21,725.57a13.92,13.92,0,0,0-2.85-4.08,18.73,18.73,0,0,0-27.16,0,14,14,0,0,0-2.86,4.08L512,829.33,441.66,725.57a14.13,14.13,0,0,0-2.86-4.09,18.74,18.74,0,0,0-27.16,0,13.92,13.92,0,0,0-2.85,4.08L338.68,829,268.57,725.57a14.13,14.13,0,0,0-2.86-4.09,18.74,18.74,0,0,0-27.15,0,14.13,14.13,0,0,0-2.86,4.09L150.68,851a12.66,12.66,0,0,0-1.86,10.51,14.59,14.59,0,0,0,7.83,9.17l2,1h0a17.92,17.92,0,0,0,7.94,1.84,16.59,16.59,0,0,0,13.83-7l71.71-105.76,71.7,105.76a16.59,16.59,0,0,0,13.83,7l1,0c.34,0,.67,0,1,0a16.62,16.62,0,0,0,13.83-7l71.7-105.76,71.7,105.76a16.62,16.62,0,0,0,13.83,7c.42,0,.83,0,1.25,0s.83,0,1.25,0a16.62,16.62,0,0,0,13.83-7l71.7-105.76,71.7,105.76a16.62,16.62,0,0,0,13.83,7c.34,0,.67,0,1,0l1,0a16.59,16.59,0,0,0,13.83-7l71.7-105.76,71.71,105.76a16.59,16.59,0,0,0,13.83,7,17.92,17.92,0,0,0,7.94-1.84l2-1a14.59,14.59,0,0,0,7.83-9.17A12.69,12.69,0,0,0,873.33,851Z"/></svg>