<svg id="_2_copy" data-name="2 copy" xmlns="http://www.w3.org/2000/svg" viewBox="0 0 1024 1024"><defs><style>.cls-1{fill:#00a4ff;}.cls-2{fill:#ff00b7;}.cls-3{fill:#fff;}.cls-4{fill:#100000;}</style></defs><title>Podfriend_logo_sleep</title><rect class="cls-1" x="15.17" y="15.17" width="993.65" height="993.65" rx="89.46"/><path d="M919.36,1024H104.63A104.75,104.75,0,0,1,0,919.36V104.63A104.75,104.75,0,0,1,104.63,0H919.36A104.75,104.75,0,0,1,1024,104.63V919.36A104.76,104.76,0,0,1,919.36,1024ZM104.63,30.35a74.36,74.36,0,0,0-74.28,74.28V919.36a74.36,74.36,0,0,0,74.28,74.29H919.36a74.37,74.37,0,0,0,74.29-74.29V104.63a74.36,74.36,0,0,0-74.29-74.28Z"/><path class="cls-2" d="M134.64,667.38h754.7s-38.42,251-377.47,251S134.64,667.38,134.64,667.38Z"/><path d="M289.69,868.65c-77.1-36.41-135.3-110.49-152.41-194Q224.06,669.9,311,668.2c40.76-.79,90.81-8.94,130.62-.15-41,21.14-77.73,36.79-107,75.13A220.24,220.24,0,0,0,302,803.41C299.47,810.41,282.63,865.32,289.69,868.65Z"/><path d="M503.72,809.14c-1,7.51-.82,17,6,20.4,5.06,2.56,11.49,0,15.17-4.35s5.28-10,6.95-15.41c17.54-57.86,52.67-102.94,96.5-143.15-25.83,2.53-58.54-1.78-77.23,19.69C523.4,718.1,509.34,768.32,503.72,809.14Z"/><path class="cls-3" d="M259,781.41c22.81,0,43.85-59.69,51.08-104.95H216.47C220.28,721.35,236.78,781.41,259,781.41Z"/><path class="cls-3" d="M765,781.41c22.3,0,38.77-60.06,42.54-104.95H713.9C721.16,721.72,742.23,781.41,765,781.41Z"/><path d="M511.87,935.62C330,935.62,232.55,864,182.81,803.88,128.45,738.2,118,672.73,117.56,670l-3-19.87H909.46l-3,19.88c-.43,2.76-11,68.23-65.37,133.89C791.26,864,693.72,935.62,511.87,935.62Zm-355.41-251c16.88,57.28,87.87,216.42,355.41,216.42,264.64,0,337.72-159.48,355.36-216.42Z"/><path class="cls-4" d="M863.75,287.78a20.18,20.18,0,0,0-28.65,8c-58.78,116.86-182.5,197-324.6,195.8-140.89-1.22-262.34-82.1-319.71-198.34a20.21,20.21,0,0,0-25.31-10h0a20.25,20.25,0,0,0-10.9,27.9A388.71,388.71,0,0,0,229.7,415.53C304.27,489.65,403.86,531,510.15,531.89S716.73,493.2,792.56,420.38A388.49,388.49,0,0,0,871.16,314a20.22,20.22,0,0,0-7.41-26.25Z"/></svg>